/* XPM */
static char * icon_xpm[] = {
"43 43 33 1",
" 	c None",
".	c #FFFFFF",
"+	c #FFF7B6",
"@	c #FFF164",
"#	c #FFEC8A",
"$	c #FFFDFB",
"%	c #FFFDDA",
"&	c #FFFF13",
"*	c #FFFAE4",
"=	c #FFDD50",
"-	c #FFCB04",
";	c #FFD52F",
">	c #FFFBF5",
",	c #FFCFAE",
"'	c #FFB583",
")	c #FFC29A",
"!	c #FFE5D3",
"~	c #FFA76C",
"{	c #FF6301",
"]	c #FFE5E5",
"^	c #FF8F46",
"/	c #FFF2F2",
"(	c #FFD8D8",
"_	c #FFB7B7",
":	c #FF7373",
"<	c #FF2727",
"[	c #FF0000",
"}	c #FF1212",
"|	c #FF3D3D",
"1	c #FFA1A1",
"2	c #FFC6C6",
"3	c #FF5555",
"4	c #FF8A8A",
"...........................................",
"........................+@#$...............",
".......................%&&&%...............",
".......................$&&&*...............",
"........................%@+................",
"....................*#@#$..................",
"...................*=---#..................",
"...................+----;*.................",
"...................+;---;*.................",
"....................=---#..................",
"...............>,')!>##+...................",
"..............>~{{{{,......................",
"..............'{{{{{{].....................",
"..............^{{{{{{,.....................",
"..............^{{{{{{,.....................",
"..............~{{{{{{!.....................",
"............../^{{{{~$.....................",
"...........(__]>'^^).......((].............",
"........./:<[}|1.$.......23<<|4/...........",
".........3[[[[[[4......]4}[[[[[:/..........",
"........_[[[[[[[[<422_:<[[[[[[[[2..........",
"........:[[[[[[[[[[[[[[[[[[[[[[[4..........",
"........:[[[[[[[[[[[[[[[[[[[[[[[4..........",
"........1[[[[[[[[[|3:3<[[[[[[[[[_..........",
"........]|[[[[[[3_/...(4<[[[[[[|/..........",
".........]3[[[}1/.......(|[[[[}_...........",
"........../(1_(..........(<[[[:$...........",
"..........................:[[}_............",
"..........................]}[|/............",
"...........................<[|.............",
"...........................<[|.............",
"..........................(}[|/............",
"..........................:[[}_............",
".........................]<[[[3$...........",
"......................../3[[[[[1...........",
".......................$4[[[[[[<(..........",
".......................]|[[[[[[[1..........",
".......................(}[[[[[[[4..........",
".......................]<[[[[[[[4..........",
"........................:[[[[[[[2..........",
"........................(|[[[[[4...........",
".........................(:|<34$...........",
"...........................](>............."};
